<?xml version="1.0" encoding="UTF-8"?>
<svg id="Layer_2" data-name="Layer 2" xmlns="http://www.w3.org/2000/svg" width="45.12" height="63.27" viewBox="0 0 45.12 63.27">
  <defs>
    <style>
      .cls-1 {
        fill: #c1272d;
        fill-rule: evenodd;
      }
    </style>
  </defs>
  <g id="Layer_2-2" data-name="Layer 2">
    <g id="Camada_1" data-name="Camada 1">
      <path class="cls-1" d="m45.12,21.79C45.12,9.75,34.98,0,22.56,0S0,9.75,0,21.79c0,.67,0,1.24.1,1.91h-.1c0,11.95,22.56,39.57,22.56,39.57,0,0,22.56-27.72,22.56-39.57h-.1c0-.67.1-1.24.1-1.91Zm-22.56,10.99c-4.97,0-8.99-3.92-8.99-8.79s4.01-8.7,8.99-8.7,8.89,3.92,8.89,8.7-4.01,8.79-8.89,8.79Z"/>
    </g>
  </g>
</svg>