<?xml version="1.0" encoding="UTF-8"?>
<svg id="Layer_2" data-name="Layer 2" xmlns="http://www.w3.org/2000/svg" width="238.73" height="52.46" viewBox="0 0 238.73 52.46">
  <defs>
    <style>
      .cls-1 {
        fill: #fff;
      }
    </style>
  </defs>
  <g id="Camada_1" data-name="Camada 1">
    <g>
      <g>
        <path class="cls-1" d="m9.21,27.26l13.86,8v-8.52l-8.02-4.63-5.84,3.37c-.49.28-.66.91-.38,1.4.09.16.22.29.38.38Z"/>
        <path class="cls-1" d="m38.5,25.51l-5.84-3.37-8.02,4.63v8.52l13.86-8c.49-.28.66-.91.38-1.4-.09-.16-.22-.29-.38-.38Z"/>
        <path class="cls-1" d="m23.09,17.47l-6.48,3.74,7.25,4.19,7.25-4.19-6.48-3.74c-.48-.28-1.06-.28-1.54,0Z"/>
        <path class="cls-1" d="m43.58,10.09L28.02,1.1c-2.55-1.47-5.71-1.47-8.26,0L4.14,10.09C1.59,11.56,0,14.31,0,17.26v17.95c0,2.95,1.59,5.7,4.14,7.17l15.61,8.99c1.27.73,2.7,1.1,4.13,1.1s2.86-.37,4.14-1.1l15.56-8.98c2.55-1.47,4.14-4.22,4.14-7.16v-17.96c0-2.95-1.58-5.69-4.14-7.16Zm-20.49,40.87c-.9-.11-1.79-.39-2.6-.86l-15.61-8.99c-2.11-1.21-3.41-3.48-3.41-5.91v-17.95c0-.93.19-1.84.55-2.67l21.08,12.17v24.2Zm1.54-15.71c-.48.27-1.06.27-1.54,0v-8.52l-8.02-4.63,1.52-.88L2.77,13.24c.55-.76,1.26-1.41,2.1-1.89L20.49,2.36c1.05-.6,2.22-.91,3.4-.91s2.36.3,3.41.91l15.56,8.98c.84.48,1.54,1.13,2.1,1.89l-13.82,7.98,1.52.88-8.02,4.63v8.52Zm21.63-.03c0,2.43-1.31,4.69-3.41,5.9l-15.56,8.98c-.83.48-1.74.77-2.66.87v-24.2l21.08-12.17c.35.83.55,1.74.55,2.67v17.96Z"/>
      </g>
      <g>
        <path class="cls-1" d="m173.76,28.57s0-.02,0-.03c0,0,0,0,0,0v-2.35s.02,0,.02,0c0-.38-.01-.75-.02-1.12,0,0,0-.02,0-.03,0-.17,0-.33,0-.5-.11-6.26-1.34-7.37-7.87-7.41h0s-.16,0-.16,0c0,0-.01,0-.02,0-.05,0-.09,0-.14,0h-6.65s0,0,0,0c-1.07,0-1.93.87-1.93,1.93s.87,1.93,1.93,1.93h0s6.47,0,6.47,0h0c.05,0,.11,0,.16,0,3.32.01,3.94.54,4,3.68,0,.06,0,.13,0,.2h-10.63c-1.08.11-1.93,1.02-1.93,2.13,0,.06,0,.11,0,.16v.26s0,0,0,0c0,.38.01.75.02,1.12,0,0,0,.02,0,.03,0,.17,0,.33,0,.5.12,6.32,1.36,7.39,8.05,7.41.11,0,.22,0,.33,0,.11,0,.22,0,.33,0,6.68-.03,7.93-1.1,8.05-7.41,0-.16,0-.33,0-.5Zm-4.22.36c-.06,3.14-.68,3.67-4,3.68-.06,0-.11,0-.16,0-.05,0-.11,0-.16,0-3.32-.01-3.94-.54-4-3.68,0-.06,0-.13,0-.2h8.32c0,.06,0,.13,0,.2Z"/>
        <path class="cls-1" d="m238.73,26.19c0-.38-.01-.75-.02-1.12v-.03c0-.17,0-.33,0-.5-.11-6.26-1.34-7.37-7.87-7.41h0s-.16,0-.16,0c0,0-.01,0-.02,0-.05,0-.09,0-.14,0h-6.65s0,0,0,0c-1.07,0-1.93.87-1.93,1.93s.87,1.93,1.93,1.93h0s6.47,0,6.47,0h0c.05,0,.11,0,.16,0,3.32.01,3.94.54,4,3.68,0,.06,0,.13,0,.2h-10.63c-1.08.11-1.93,1.02-1.93,2.13,0,.06,0,.11,0,.16v.26s0,0,0,0c0,.38.01.75.02,1.12,0,0,0,.02,0,.03,0,.17,0,.33,0,.5.12,6.32,1.36,7.39,8.05,7.41.11,0,.22,0,.33,0,.11,0,.22,0,.33,0,6.68-.03,7.93-1.1,8.05-7.41,0-.16,0-.33,0-.5,0,0,0-.02,0-.03,0,0,0,0,0,0v-2.35s.02,0,.02,0Zm-4.24,2.74c-.06,3.14-.68,3.67-4,3.68-.06,0-.11,0-.16,0-.05,0-.11,0-.16,0-3.32-.01-3.94-.54-4-3.68,0-.06,0-.13,0-.2h8.32c0,.06,0,.13,0,.2Z"/>
        <path class="cls-1" d="m150.84,17.13h-2.27c-.11,0-.22,0-.33,0-6.68.03-7.93,1.1-8.05,7.41,0,.16,0,.33,0,.5v.03c0,.37-.01.75-.02,1.12h0s0,.61,0,.61h-.01v7.74h0c.09,1.08.99,1.93,2.09,1.93s2.01-.85,2.09-1.93h0v-7.74h0c0-.73.02-1.44.03-2.13.06-3.14.68-3.67,4-3.68.06,0,.11,0,.16,0h2.27c1.07,0,1.93-.87,1.93-1.93s-.87-1.93-1.93-1.93Z"/>
        <path class="cls-1" d="m188.32,19.05c0-1.07-.87-1.93-1.93-1.93,0,0,0,0,0,0-.11,0-.21,0-.32,0-1.57,0-2.84.07-3.87.25v-2.35c0-1.16-.94-2.1-2.1-2.1s-2.1.94-2.1,2.1v19.35c0,1.16.94,2.1,2.1,2.1s2.1-.94,2.1-2.1v-7.58h0c0-.73.02-1.44.03-2.13.06-3.14.68-3.67,4-3.68.06,0,.11,0,.16,0h0c1.07,0,1.93-.87,1.93-1.93Z"/>
        <path class="cls-1" d="m194.62,36.48c1.1,0,2.01-.85,2.09-1.93h0v-15.32c0-1.16-.94-2.1-2.1-2.1s-2.1.94-2.1,2.1v15.32h0c.09,1.08.99,1.93,2.09,1.93Z"/>
        <g>
          <path class="cls-1" d="m72.93,29.06c0-.16,0-.33,0-.5,0,0,0-.02,0-.03,0-.34.01-.68.02-1.03,0,0,0-.02,0-.03v-1.36c0-.69-.68-1.25-1.51-1.25h-4.77s-.07,0-.1,0c-.03,0-.06,0-.09,0-1.07,0-1.93.87-1.93,1.93s.87,1.93,1.93,1.93c.03,0,.06,0,.08,0,.04,0,.07,0,.11,0h2.04c0,.06,0,.13,0,.2-.06,3.14-.68,3.67-4,3.68-.06,0-.11,0-.16,0-.05,0-.11,0-.16,0-3.32-.01-3.94-.54-4-3.68-.01-.68-.02-1.4-.03-2.13,0-.73.02-1.44.03-2.13.06-3.14.68-3.67,4-3.68.06,0,.11,0,.16,0h6.46c1.07,0,1.93-.87,1.93-1.93s-.87-1.93-1.93-1.93h-6.46c-.11,0-.22,0-.33,0-6.68.03-7.93,1.1-8.05,7.41,0,.16,0,.33,0,.5,0,0,0,.02,0,.03,0,0,0,0,0,0v2.35s-.02,0-.02,0c0,.38.01.75.02,1.12,0,0,0,.02,0,.03,0,.17,0,.33,0,.5.12,6.32,1.36,7.39,8.05,7.41.11,0,.22,0,.33,0,.11,0,.22,0,.33,0,6.68-.03,7.93-1.1,8.05-7.41Z"/>
          <path class="cls-1" d="m114.96,34.54h0v-7.74h-.01v-.62s.01,0,.01,0c0-.38-.01-.75-.02-1.12,0,0,0-.02,0-.03,0-.17,0-.33,0-.5-.12-6.32-1.36-7.39-8.05-7.41-.11,0-.22,0-.33,0-.11,0-.22,0-.33,0-6.68.03-7.93,1.1-8.05,7.41,0,.16,0,.33,0,.5,0,0,0,.02,0,.03,0,.37-.01.75-.02,1.12h0s0,.61,0,.61h-.01v7.74h0c.09,1.08.99,1.93,2.09,1.93s2.01-.85,2.09-1.93h0v-7.74h0c0-.73.02-1.44.03-2.13.06-3.14.68-3.67,4-3.68.06,0,.11,0,.16,0,.05,0,.11,0,.16,0,3.32.01,3.94.54,4,3.68.01.68.02,1.4.03,2.13,0,0,0,0,0,0h0v7.74h0c.09,1.08.99,1.93,2.09,1.93s2.01-.85,2.09-1.93Z"/>
          <path class="cls-1" d="m87.66,36.48h.07s0,0,0,0h4.3c1.07,0,1.93-.87,1.93-1.93s-.87-1.93-1.93-1.93h-4.3s0,0,0,0h-2.35c-3.3-.02-3.92-.55-3.98-3.68,0-.06,0-.13,0-.2h10.63c1.07,0,1.93-.87,1.93-1.93,0-.06,0-.12,0-.18v-.43s0,0,0,0c0-.38-.01-.75-.02-1.12,0,0,0-.02,0-.03,0-.17,0-.33,0-.5-.12-6.32-1.36-7.39-8.05-7.41-.11,0-.22,0-.33,0-.11,0-.22,0-.33,0-6.68.03-7.93,1.1-8.05,7.41,0,.16,0,.33,0,.5,0,0,0,.02,0,.03,0,0,0,0,0,0v2.35s-.02,0-.02,0c0,.38.01.75.02,1.12,0,0,0,.02,0,.03,0,.17,0,.33,0,.5.11,6.2,1.32,7.35,7.68,7.41h0s.09,0,.09,0c.09,0,.18,0,.27,0,.11,0,.22,0,.33,0h0s0,0,0,0h0s2.09,0,2.09,0Zm-6.26-11.8c.06-3.14.68-3.67,4-3.68.06,0,.11,0,.16,0,.05,0,.11,0,.16,0,3.32.01,3.94.54,4,3.68,0,.06,0,.13,0,.2h-8.32c0-.06,0-.13,0-.2Z"/>
        </g>
        <path class="cls-1" d="m135.97,26.19c0-.38-.01-.75-.02-1.12v-.03c0-.17,0-.33,0-.5-.12-6.32-1.36-7.39-8.05-7.41-.11,0-.22,0-.33,0-.11,0-.22,0-.33,0-6.68.03-7.93,1.1-8.05,7.41,0,.16,0,.33,0,.5,0,0,0,.02,0,.03,0,0,0,0,0,0v2.35s-.02,0-.02,0c0,.38.01.75.02,1.12,0,0,0,.02,0,.03,0,.17,0,.33,0,.5.11,6.2,1.32,7.35,7.68,7.41h0s.09,0,.09,0c.09,0,.18,0,.27,0,.11,0,.22,0,.33,0h0s0,0,0,0h0s2.09,0,2.09,0h.07s0,0,0,0h4.3c1.07,0,1.93-.87,1.93-1.93s-.87-1.93-1.93-1.93h-4.3s0,0,0,0h-2.35c-3.3-.02-3.92-.55-3.98-3.68,0-.06,0-.13,0-.2h10.63c1.07,0,1.93-.87,1.93-1.93,0-.06,0-.12,0-.18v-.43s0,0,0,0Zm-12.56-1.32c0-.07,0-.13,0-.2.06-3.14.68-3.67,4-3.68.06,0,.11,0,.16,0,.05,0,.11,0,.16,0,3.32.01,3.94.54,4,3.68,0,.06,0,.13,0,.2h-8.32Z"/>
        <path class="cls-1" d="m216.2,17.22s0,0,0,0c0,0,0,0,0,0-.98-.29-1.99.17-2.44,1.04,0,0,0,0,0,.01-.02.04-.04.09-.06.13-.01.02-.02.05-.03.07,0,0,0,0,0,.01h0s-.05.17-.05.17c0,0,0,0,0,.01l-.25.87-3.78,12.93h0c-.03.09-.11.16-.21.16s-.19-.07-.21-.16l-3.78-12.93-.25-.87s0,0,0-.01l-.05-.17h0s0,0,0,0c0-.03-.02-.05-.03-.07-.02-.05-.04-.09-.06-.13,0,0,0,0,0-.01-.46-.87-1.47-1.32-2.44-1.04,0,0,0,0,0,0,0,0,0,0,0,0-1.12.33-1.77,1.51-1.44,2.63l.25.87,1.87,6.38.25.87,1.51,5.16s0,0,0,0h0c.54,1.93,2.32,3.35,4.42,3.35,1.97,0,3.66-1.25,4.31-2.99.01,0,.02,0,.02,0h0s1.62-5.52,1.62-5.52l.25-.87,1.87-6.38.25-.87c.33-1.12-.32-2.3-1.44-2.63Z"/>
      </g>
    </g>
  </g>
</svg>