<?xml version="1.0" encoding="UTF-8"?>
<svg id="Layer_2" data-name="Layer 2" xmlns="http://www.w3.org/2000/svg" width="35.36" height="19.95" viewBox="0 0 35.36 19.95">
  <defs>
    <style>
      .cls-1 {
        fill: #fdc00f;
      }

      .cls-2 {
        fill: #467293;
      }

      .cls-3 {
        opacity: .3;
      }

      .cls-4 {
        fill: #184f78;
      }

      .cls-5 {
        fill: #fed96f;
      }
    </style>
  </defs>
  <g id="Camada_1" data-name="Camada 1">
    <g>
      <path class="cls-4" d="m8.29,7.61v9.09c0,1.04,7.31,3.25,9.39,3.25s9.39-2.22,9.39-3.25V7.61H8.29Z"/>
      <polygon class="cls-3" points="8.29 11.82 17.68 15.37 27.06 11.82 27.06 8.53 8.29 8.53 8.29 11.82"/>
      <polygon class="cls-4" points="17.68 0 0 6.67 17.68 13.34 35.36 6.67 17.68 0"/>
      <polygon class="cls-2" points="17.68 13.34 0 6.67 0 7.59 17.68 14.26 35.36 7.59 35.36 6.67 17.68 13.34"/>
      <g>
        <path class="cls-1" d="m28.18,14.98h-.79s-1.73,2.44-.59,4.89h1.97c1.14-2.45-.59-4.89-.59-4.89Z"/>
        <g>
          <path class="cls-5" d="m28.41,19.47c.04-.22.02-.49.03-.78,0-.14,0-.29-.01-.43-.01-.15-.03-.3-.04-.45,0-.15-.04-.29-.06-.44-.03-.14-.05-.28-.08-.42-.07-.26-.12-.52-.19-.72-.12-.42-.24-.67-.24-.67,0,0,.1.27.19.69.06.21.09.46.14.73.01.13.03.28.04.42.01.14.04.29.03.43,0,.14,0,.29,0,.43,0,.14,0,.28-.02.42-.03.27-.03.52-.08.72-.04.19-.08.35-.11.47h.33c.02-.11.04-.25.06-.4Z"/>
          <path class="cls-5" d="m27.45,19.4c-.05-.2-.05-.46-.08-.72-.02-.13-.02-.27-.02-.42,0-.14,0-.29,0-.43,0-.15.02-.29.03-.43.02-.14.03-.28.04-.42.05-.27.08-.52.14-.73.09-.43.19-.69.19-.69,0,0-.12.26-.24.67-.07.2-.12.46-.19.72-.02.14-.05.28-.08.42-.02.14-.06.29-.06.44-.01.15-.03.3-.04.45-.02.15-.02.29-.01.43.01.28,0,.55.03.78.02.16.04.29.06.4h.33c-.03-.12-.06-.27-.11-.47Z"/>
          <path class="cls-5" d="m28.97,19.11c.02-.14.04-.29.03-.45,0-.16,0-.31-.02-.48,0-.16-.05-.32-.07-.48-.14-.63-.41-1.18-.63-1.56-.23-.38-.41-.59-.41-.59,0,0,.17.23.37.63.2.4.42.97.51,1.57.01.15.04.3.04.45,0,.15,0,.3-.01.44,0,.14-.03.27-.06.4-.02.12-.05.24-.09.34-.06.21-.14.37-.2.47,0,0,0,0,0,0h.35c.02-.05.04-.1.06-.15.02-.07.04-.13.06-.21.04-.12.06-.25.07-.39Z"/>
          <path class="cls-5" d="m27.79,15.56l-.16,4.31h.32l-.16-4.31Z"/>
          <path class="cls-5" d="m27.15,19.86c-.06-.11-.13-.27-.2-.47-.04-.1-.07-.22-.09-.34-.03-.12-.05-.26-.06-.4-.02-.14-.02-.29-.01-.44,0-.15.03-.3.04-.45.09-.61.31-1.17.51-1.57.2-.4.37-.63.37-.63,0,0-.18.21-.41.59-.22.38-.5.93-.63,1.56-.03.16-.07.32-.08.48-.02.16-.03.32-.02.48,0,.16,0,.31.03.45.02.14.04.28.07.39.02.08.04.14.06.21.02.05.04.1.06.15h.35s0,0,0,0Z"/>
        </g>
      </g>
      <path class="cls-5" d="m26.89,14.98c0-.49.4-.89.89-.89s.89.4.89.89-.4.89-.89.89-.89-.4-.89-.89Z"/>
      <ellipse class="cls-3" cx="17.68" cy="6.67" rx="2.81" ry="1.67"/>
      <path class="cls-1" d="m20.43,7.01c-.09.27-.3.52-.59.73v.05s7.49,2.22,7.49,2.22v4.97h.92v-5.66l-7.81-2.31Z"/>
      <path class="cls-4" d="m14.87,6.44c0-.79,1.08-1.43,2.42-1.43s2.42.64,2.42,1.43-1.08,1.43-2.42,1.43-2.42-.64-2.42-1.43Z"/>
    </g>
  </g>
</svg>