<?xml version="1.0" encoding="UTF-8"?>
<svg id="Layer_2" data-name="Layer 2" xmlns="http://www.w3.org/2000/svg" viewBox="0 0 11.84 3.7">
  <defs>
    <style>
      .cls-1 {
        fill: #7e7e84;
        stroke: #7e7e84;
        stroke-miterlimit: 10;
        stroke-width: .25px;
      }
    </style>
  </defs>
  <g id="Layer_1-2" data-name="Layer 1">
    <g>
      <path class="cls-1" d="M7.96,3.58c-.99,0-1.75-.65-2.48-1.29-.76-.65-1.48-1.27-2.42-1.21-.71,.05-1.42,.48-2.1,1.29l-.34-.34c.76-.9,1.57-1.39,2.41-1.45,1.13-.1,1.95,.63,2.74,1.31,.72,.62,1.37,1.2,2.25,1.17,.94-.03,1.9-.82,2.84-2.35l.39,.28c-1.03,1.67-2.11,2.53-3.21,2.57-.03,0-.05,0-.08,0Z"/>
      <path class="cls-1" d="M10.44,.45c.22-.34,.66-.42,.97-.19,.32,.24,.39,.71,.17,1.05-.22,.34-.66,.42-.97,.19-.32-.24-.39-.71-.17-1.05Z"/>
      <path class="cls-1" d="M.29,1.69c-.25,.32-.21,.79,.09,1.06,.3,.27,.74,.22,.98-.09s.21-.79-.09-1.06-.74-.22-.98,.09Z"/>
    </g>
  </g>
</svg>