<?xml version="1.0" encoding="UTF-8"?>
<svg id="Layer_2" data-name="Layer 2" xmlns="http://www.w3.org/2000/svg" width="148" height="19.2" viewBox="0 0 148 19.2">
  <defs>
    <style>
      .cls-1 {
        fill: #fff;
      }
    </style>
  </defs>
  <g id="Layer_2-2" data-name="Layer 2">
    <g id="Camada_1" data-name="Camada 1">
      <g>
        <path class="cls-1" d="m95.3,12.7h0v-1.9h0v-.9h0v-.4c-.1-5.1-1.1-6-6.4-6h-5.6c-.9,0-1.6.7-1.6,1.6s.7,1.6,1.6,1.6h5.3c2.7,0,3.2.4,3.2,3v.2h-8.6c-.9.1-1.6.8-1.6,1.7v.3h0v.9h0v.4c.1,5.1,1.1,6,6.5,6h.6c5.4,0,6.4-.9,6.5-6,.1-.2.1-.3.1-.5h0Zm-3.4.3c-.1,2.5-.6,3-3.2,3h-.2c-2.7,0-3.2-.4-3.2-3v-.2h6.8c-.2.1-.2.2-.2.2h0Z"/>
        <path class="cls-1" d="m148,10.8v-.9h0v-.4c-.1-5.1-1.1-6-6.4-6h-5.6c-.9,0-1.6.7-1.6,1.6s.7,1.6,1.6,1.6h5.3c2.7,0,3.2.4,3.2,3v.2h-8.6c-.9.1-1.6.8-1.6,1.7v.3h0v.9h0v.4c.1,5.1,1.1,6,6.5,6h.6c5.4,0,6.4-.9,6.5-6v-.4h0l.1-2h0Zm-3.4,2.2c-.1,2.6-.6,3-3.2,3h-.2c-2.7,0-3.2-.4-3.2-3v-.2h6.8c-.2.1-.2.2-.2.2h0Z"/>
        <path class="cls-1" d="m76.7,3.5h-2.1c-5.4,0-6.4.9-6.5,6v.4h0v.9h0v.5h0v6.3h0c.1.9.8,1.6,1.7,1.6s1.6-.7,1.7-1.6h0v-6.3h0v-1.7c.1-2.5.6-3,3.2-3h1.9c.9,0,1.6-.7,1.6-1.6s-.6-1.6-1.5-1.5h0Z"/>
        <path class="cls-1" d="m107.1,5c0-.9-.7-1.6-1.6-1.6h-.3c-1.3,0-2.3.1-3.1.2v-1.9c0-.9-.8-1.7-1.7-1.7s-1.7.8-1.7,1.7v15.7c0,.9.8,1.7,1.7,1.7s1.7-.8,1.7-1.7v-6.1h0v-1.7c.1-2.5.6-3,3.2-3h.1c1,0,1.7-.7,1.7-1.6h0Z"/>
        <path class="cls-1" d="m112.2,19.2c.9,0,1.6-.7,1.7-1.6h0V5.2c0-.9-.8-1.7-1.7-1.7s-1.7.8-1.7,1.7v12.4h0c.1.9.8,1.6,1.7,1.6Z"/>
        <g>
          <path class="cls-1" d="m13.5,13.1v-.4h0v-.8h0v-1.1c0-.6-.6-1-1.2-1h-4.1c-.9,0-1.6.7-1.6,1.6s.7,1.6,1.6,1.6h1.9v.2c-.1,2.6-.6,3-3.2,3h-.2c-2.7,0-3.2-.4-3.2-3v-3.4c0-2.5.5-3,3.2-3h5.3c.9,0,1.6-.7,1.6-1.6s-.7-1.6-1.6-1.6h-5.5C1.1,3.6.1,4.5,0,9.6v.4h0v1.9h0v.9h0v.4c.1,5.1,1.1,6,6.5,6h.6c5.3-.1,6.3-.9,6.4-6.1h0Z"/>
          <path class="cls-1" d="m47.6,17.6h0v-6.3h0v-.5h0v-.9h0v-.4c-.1-5.1-1.1-6-6.5-6h-.6c-5.4,0-6.4.9-6.5,6v.4h0v.9h0v.5h0v6.3h0c.1.9.8,1.6,1.7,1.6s1.6-.7,1.7-1.6h0v-6.3h0v-1.7c.1-2.5.6-3,3.2-3h.2c2.7,0,3.2.4,3.2,3v1.7h0v6.3h0c.1.9.8,1.6,1.7,1.6s1.8-.7,1.9-1.6h0Z"/>
          <path class="cls-1" d="m25.5,19.2h3.5c.9,0,1.6-.7,1.6-1.6s-.7-1.6-1.6-1.6h-5.4c-2.7,0-3.2-.5-3.2-3v-.2h8.6c.9,0,1.6-.7,1.6-1.6v-.5h0v-.9h0v-.4c-.1-5.1-1.1-6-6.5-6h-.6c-5.4,0-6.4.9-6.5,6v.4h0v1.9h0v.9h0v.4c.1,5,1.1,6,6.2,6h.6l1.7.2h0Zm-5.1-9.6c.1-2.5.6-3,3.2-3h.2c2.7,0,3.2.4,3.2,3v.2h-6.8c.2-.1.2-.2.2-.2h0Z"/>
        </g>
        <path class="cls-1" d="m64.7,10.8v-.9h0v-.4c-.1-5.1-1.1-6-6.5-6h-.6c-5.4,0-6.4.9-6.5,6v.4h0v1.9h0v.9h0v.4c.1,5,1.1,6,6.2,6h5.9c.9,0,1.6-.7,1.6-1.6s-.7-1.6-1.6-1.6h-5.4c-2.7,0-3.2-.5-3.2-3v-.2h8.6c.9,0,1.6-.7,1.6-1.6v-.1l-.1-.2h0Zm-10.2-1.1v-.2c.1-2.5.6-3,3.2-3h.2c2.7,0,3.2.4,3.2,3v.2h-6.6Z"/>
        <path class="cls-1" d="m129.8,3.5h0c-.8-.2-1.6.1-2,.8h0s0,.1-.1.1v.1h0v.1h0l-.2.7-3.1,10.5h0c0,.1-.1.1-.2.1s-.1-.1-.2-.1l-3.1-10.5-.2-.7h0v-.1h0v-.1s0-.1-.1-.1h0c-.4-.7-1.2-1.1-2-.8h0c-.9.3-1.4,1.2-1.2,2.1l.2.7,1.5,5.2.2.7,1.2,4.2h0c.4,1.6,1.9,2.7,3.6,2.7,1.6,0,3-1,3.5-2.4h0l1.3-4.5.2-.7,1.5-5.2.2-.7c.5-.9-.1-1.8-1-2.1h0Z"/>
      </g>
    </g>
  </g>
</svg>