<?xml version="1.0" encoding="UTF-8"?>
<svg id="Layer_2" data-name="Layer 2" xmlns="http://www.w3.org/2000/svg" viewBox="0 0 1489.67 84.55">
  <defs>
    <style>
      .cls-1 {
        fill: #3c96ff;
      }

      .cls-2 {
        fill: #2c2c2c;
      }

      .cls-3 {
        fill: #2d2d2d;
      }

      .cls-4 {
        fill: #6370ff;
      }

      .cls-5 {
        fill: #2f2f2f;
      }

      .cls-6 {
        fill: #5875ff;
      }

      .cls-7 {
        fill: #282828;
      }

      .cls-8 {
        fill: #29bcfc;
      }

      .cls-9 {
        fill: #4b82ff;
      }

      .cls-10 {
        fill: #3d94fe;
      }

      .cls-11 {
        fill: #4a83ff;
      }

      .cls-12 {
        fill: #2bb0fc;
      }

      .cls-13 {
        fill: #23c3f5;
      }

      .cls-14 {
        fill: #33a5fe;
      }

      .cls-15 {
        fill: #323232;
      }

      .cls-16 {
        fill: #2e2e2e;
      }
    </style>
  </defs>
  <g id="Layer_1-2" data-name="Layer 1">
    <path class="cls-7" d="M227.16,4.11c.38-.62.87-.6,1.5-.68,12.17-1.43,27.67.8,40.1.51,13.81,1.82,22.93,9.51,20.58,24.38-.89,5.63-5.14,9.38-9.4,12.62,15.61,3.77,18.78,26.07,5.81,34.8-3.1,2.09-10.68,4.88-14.32,4.88h-44.28V4.11ZM238.5,37.02h27.27c2.3,0,8.11-2.46,9.83-4.13,4.38-4.22,3.85-12.77-.93-16.54-2.67-2.11-8.61-3.74-11.96-3.74h-24.21v24.41ZM238.5,71.46h30.76c2.11,0,7.45-2.09,9.17-3.48,5.03-4.07,5.66-13.01.86-17.45-2.44-2.25-8.98-4.36-12.21-4.36h-28.57v25.29Z"/>
    <polygon class="cls-7" points="505.49 60.56 505.49 4.11 506.14 3.45 516.17 3.45 516.83 4.11 516.83 80.62 507.45 80.62 461.42 23.94 461.42 80.62 450.08 80.62 450.08 4.11 450.74 3.45 459.02 3.45 505.49 60.56"/>
    <path class="cls-7" d="M180.91,80.62h-12.22l-15.94-23.1-.84-.44c-.41.02-.76.43-.9.43h-22.03v23.11h-11.34V3.45c12.94.65,27.05-1.28,39.79,1,16.81,3,26.07,17.28,21.6,33.97-2.25,8.41-7.97,13.17-15.57,16.72l17.44,25.47ZM128.56,13.48v33.79l.65.65h21.81c12.64,0,20.41-11.11,17.02-23.11-1.63-5.79-9.38-11.33-15.28-11.33h-24.21Z"/>
    <path class="cls-7" d="M409.07,80.62h-11.78l-8.58-19.11-39.65-.1-9.14,19.21h-11.12L363.9,3.42c2.41.5,9.58-.95,10.9.93l34.27,76.27ZM352.36,52.71h32.72l-15.93-37.06-16.79,37.06Z"/>
    <path class="cls-7" d="M11.65,3.45v47.3c0,16.9,16.65,25.02,31.4,19.18,6.72-2.66,11.79-11.18,11.79-18.3V3.45h10.91v49.92c0,15.09-13.3,26.98-27.71,28.11C-10.65,85.32,2.02,36.58.28,4.96l.68-1.5h10.69Z"/>
    <path class="cls-16" d="M1000.19,3.45l3.42.07,35.19,60.95,35.41-60.95c1.11-.16,2.47-.38,3.2.58v76.29c-.94,1.03-3.42,1.03-4.36,0V13.04l-32.93,56.68-2.19.47-33.8-57.59v67.79c-.93,1.14-2.61.53-3.93.65V3.45Z"/>
    <path class="cls-5" d="M1327.82,3.45c17.9.85,50.2-5.41,56.69,17.68,3.99,14.21-2.5,28.25-17,32.24l18.26,25.78.5,1.9-4.68-.56-18.44-25.82-30.97.23v25.5c-.94,1.03-3.42,1.03-4.36,0V3.45ZM1331.75,7.38v43.38c.38.62.87.6,1.5.68,7.75.91,27.8.44,34.93-2.19,15.98-5.91,18.22-29.54,4-38.02-2.36-1.41-9.27-3.84-11.86-3.84h-28.57Z"/>
    <path class="cls-16" d="M908.06,3.14c52.31-2.94,57.19,71.8,8.54,77.85-56.2,6.99-62.27-74.83-8.54-77.85ZM906.75,7.07c-45.51,4.08-40.82,73.67,6.41,70.49,47.16-3.17,42.87-74.91-6.41-70.49Z"/>
    <path class="cls-16" d="M826.13,3.45v3.92h-46.68v32.26h41.23c1.02.87,1.02,3.05,0,3.92h-41.23v33.57h48.42c-.12,1.31.49,3-.65,3.92h-51.7V3.45h50.61Z"/>
    <path class="cls-16" d="M1185.6,3.45v3.92h-46.68v32.26h41.23c1.02.87,1.02,3.05,0,3.92h-41.23v33.57h48.42c-.12,1.31.49,3-.65,3.92h-51.7V3.45h50.61Z"/>
    <path class="cls-3" d="M716.19,42.69l3.21.06.72,1.03c-.55,8.32.72,17.53.02,25.74-.2,2.33-1.28,2.91-3.11,4.31-11.58,8.85-30.77,9.62-43.61,3.11-26.16-13.27-28.19-51.36-3.61-67.29,14.84-9.62,37.32-8.83,50.3,3.64l-2.46,2.79c-18.5-17.02-51.94-9.47-59.36,15.2-5.98,19.89,5.22,40.65,25.61,45.22,10.81,2.42,24.38.75,32.29-7.42v-26.38Z"/>
    <path class="cls-2" d="M1454.33,54.24l-30.97-50.14c-.12-.89.04-.56.64-.65,1.12-.15,3.4-.32,4.11.7l28.19,45.95c.83.19.56-.26.78-.55.89-1.18,1.83-2.95,2.67-4.28,8.63-13.67,16.88-27.6,25.33-41.38l4.58-.43-30.97,50.79v26.16c-.94,1.03-3.42,1.03-4.36,0v-26.16Z"/>
    <path class="cls-15" d="M1256.71,7.38v73.02c-.94,1.03-3.42,1.03-4.36,0V7.38h-27.92v-3.92h59.98c1.02.87,1.02,3.05,0,3.92h-27.7Z"/>
    <path class="cls-6" d="M583.14.4c-1.51,6.49-5.86,12.24-7.29,18.66-.61,2.75-.84,5.21,1.18,7.5-1.86,1.79-7.76,7.87-9.16,9.81-3.45,4.79-1.01,6.93,2.19,10.46.32.36.33.99.42,1.09l-5.46,6.1c-1.85,1.49-4.59,2.62-5.01,5.24-2.46-2.49-4.99-4.86-7.42-7.41.73-2.72,2.93-4.66,4.14-6.98,3.46-6.63,6.23-16.7,9.17-23.97,1.13-2.78,3.3-5.64,3.27-8.73,3.79-3.71,8.8-10.61,13.96-11.77Z"/>
    <path class="cls-14" d="M608.44,18.71c2.43,2.51,5,4.86,7.42,7.41l-3.13,5.37c-2.97,9.69-9.79,19.92-16.51,27.53-5.65,6.4-12.84,8.29-19.32,13.38-.73.58-1.56,1.01-1.6,2.1-1.32-1.3-2.54-2.98-3.49-3.92l12.65-10.46c1.5.26,3.37-.46,4.58-1.3,1.9-1.33,13.06-12.51,14.36-14.42,2.74-3.99,1.33-6-1.5-9.13l2.75-10.55,3.8-6.02Z"/>
    <path class="cls-11" d="M597.53,7.38l-5.55,9.06-2.31,6.63c-4.96-4.2-7.58-.73-11.14,2.62-.46.43-1.25.61-1.52.87-2.02-2.29-1.79-4.75-1.18-7.5,1.42-6.41,5.78-12.17,7.29-18.66,7.7-1.72,9.6,2.41,14.4,6.98Z"/>
    <path class="cls-4" d="M552.6,51.84c-4.8-5.06-8.99-8.22-5.76-16.44,1.72-4.36,17.96-18.96,22.34-23.24.03,3.09-2.14,5.95-3.27,8.73-2.94,7.27-5.7,17.33-9.17,23.97-1.21,2.32-3.41,4.26-4.14,6.98Z"/>
    <path class="cls-12" d="M615.86,26.12c1.75,1.85,3.62,3.98,5.24,5.67-2.68,3.04-3.94,6.86-6.1,10.26-4.44,7-18.62,23.48-25.34,27.86-3.81,2.48-8.25,4.15-11.75,7.22-.87-.87-1.75-1.75-2.62-2.62.04-1.1.87-1.53,1.6-2.1,6.48-5.1,13.67-6.98,19.32-13.38,6.72-7.61,13.54-17.84,16.51-27.53l3.13-5.37Z"/>
    <path class="cls-8" d="M615.42,54.89c-2.16-1.06-3.77-.36-5.63.69-6.25,3.52-10.29,10.04-16.22,14.31-3.37,2.43-7.76,4.93-11.45,6.87-1.05.56-2.08,1.26-3.35,1.23-.3-.29-.58-.58-.87-.87,3.5-3.07,7.94-4.74,11.75-7.22,6.72-4.38,20.9-20.86,25.34-27.86,2.16-3.4,3.42-7.22,6.1-10.26,1,1.04,2.36,1.41,3.28,3.48,4.17,9.4-3.39,13.98-8.95,19.62Z"/>
    <path class="cls-1" d="M597.53,7.38c3.87,3.68,7.31,7.63,10.91,11.33l-3.8,6.02-2.75,10.55c-3.03-3.35-8.87-9.37-12.22-12.21l2.31-6.63,5.55-9.06Z"/>
    <path class="cls-13" d="M615.42,54.89c-9.7,9.86-19.41,19.7-29.24,29.44l-.65.22c-1.03,0-5.66-5.47-6.76-6.55,1.27.02,2.29-.68,3.35-1.23,3.69-1.94,8.08-4.44,11.45-6.87,5.93-4.27,9.97-10.79,16.22-14.31,1.86-1.05,3.48-1.75,5.63-.69Z"/>
    <path class="cls-9" d="M578.78,55.77c-.97-.11-1.61.44-2.33.95-1.92,1.35-7.61,5.62-9.04,7.1-.6.62-.98,1.04-.85,1.98-2.18-2.18-4.37-4.34-6.54-6.54.42-2.61,3.16-3.75,5.01-5.24l5.46-6.1c2.15,2.25,5.86,5.57,8.29,7.85Z"/>
    <path class="cls-10" d="M578.78,55.77c1.27,1.19,4.14,4.09,5.67,4.36l-12.65,10.46c-1.46-1.45-3.51-3.07-5.24-4.8-.12-.94.25-1.36.85-1.98,1.42-1.47,7.12-5.75,9.04-7.1.72-.5,1.36-1.05,2.33-.95Z"/>
  </g>
</svg>