<?xml version="1.0" encoding="UTF-8"?>
<svg id="Layer_2" data-name="Layer 2" xmlns="http://www.w3.org/2000/svg" viewBox="0 0 6.66 9.66">
  <defs>
    <style>
      .cls-1 {
        fill: #7e7e84;
      }
    </style>
  </defs>
  <g id="Layer_1-2" data-name="Layer 1">
    <path class="cls-1" d="M6.64,9.46c-.49-.92-.61-3.88-.62-3.91-.05-3.57,.18-5.11,.23-5.39,0-.04,0-.08-.03-.11-.03-.03-.06-.05-.11-.05h-.42c-.07,0-.12,.05-.14,.11-.05,.26-.26,1.65-.24,4.84-.04-.02-.09-.03-.14-.03H.35c-.2,0-.35,.16-.35,.35v.15c0,.17,.12,.32,.29,.35v.22s0,.02,0,.03v3.47c0,.09,.08,.17,.17,.17h.35c.09,0,.17-.08,.17-.17v-2.39H5.45c.09,.92,.26,2,.55,2.49,.02,.04,.07,.07,.12,.07h.41s.09-.02,.12-.07c.02-.04,.03-.09,0-.13ZM.98,6.74v-.72H.98s4.38,0,4.38,0c.01,.2,.03,.45,.06,.72H.98Z"/>
  </g>
</svg>