<?xml version="1.0" encoding="UTF-8"?>
<svg id="Layer_2" data-name="Layer 2" xmlns="http://www.w3.org/2000/svg" viewBox="0 0 12.51 10.08">
  <defs>
    <style>
      .cls-1 {
        fill: #7e7e84;
      }
    </style>
  </defs>
  <g id="Layer_1-2" data-name="Layer 1">
    <g>
      <path class="cls-1" d="M.63,8.77c0-.41,.33-.74,.74-.74s.74,.33,.74,.74c0,.05,.01,.1,.03,.14,.1,.66,.67,1.17,1.36,1.17s1.3-.55,1.37-1.24c0-.02,0-.04,0-.06,0-.41,.33-.74,.74-.74s.74,.33,.74,.74c0,.05,.01,.1,.03,.14,.1,.66,.67,1.17,1.36,1.17s1.3-.55,1.37-1.24c0-.02,0-.04,0-.06,0-.41,.33-.74,.74-.74s.74,.33,.74,.74c0,.18,.14,.32,.32,.32h0c.18,0,.32-.14,.32-.32,0-.76-.62-1.37-1.37-1.37-.71,0-1.3,.55-1.37,1.24,0,.02,0,.04,0,.06,0,.41-.33,.74-.74,.74s-.74-.33-.74-.74c0-.05-.01-.1-.03-.14-.1-.66-.67-1.17-1.36-1.17s-1.3,.55-1.37,1.24c0,.02,0,.04,0,.06,0,.41-.33,.74-.74,.74s-.74-.33-.74-.74c0-.05-.01-.1-.03-.14-.1-.66-.67-1.17-1.36-1.17-.76,0-1.37,.62-1.37,1.37,0,.18,.14,.32,.32,.32,.01,0,.03,0,.04,0,.16-.02,.28-.15,.28-.31Z"/>
      <path class="cls-1" d="M9.63,1.37v1.23h-3.32V1.37c0-.41,.36-.74,.81-.74s.81,.33,.81,.74c0,.18,.14,.32,.32,.32s.32-.14,.32-.32c0-.76-.65-1.37-1.44-1.37s-1.44,.62-1.44,1.37V6.48c0,.18,.14,.32,.32,.32s.32-.14,.32-.32v-1.09h3.32v1.09c0,.18,.14,.32,.32,.32s.32-.14,.32-.32V1.37c0-.41,.36-.74,.81-.74s.81,.33,.81,.74c0,.18,.14,.32,.32,.32s.32-.14,.32-.32c0-.76-.65-1.37-1.44-1.37s-1.44,.62-1.44,1.37Zm-3.32,3.38v-1.52h3.32v1.52h-3.32Z"/>
    </g>
  </g>
</svg>